<?xml version="1.0" encoding="UTF-8"?>
<!--Generator: Apple Native CoreSVG 341-->
<!DOCTYPE svg
PUBLIC "-//W3C//DTD SVG 1.1//EN"
       "http://www.w3.org/Graphics/SVG/1.1/DTD/svg11.dtd">
<svg version="1.1" xmlns="http://www.w3.org/2000/svg" xmlns:xlink="http://www.w3.org/1999/xlink" viewBox="0 0 651.25 651.75">
 <g>
  <rect height="651.75" opacity="0" width="651.25" x="0" y="0"/>
  <path d="M325.5 651.25C505.25 651.25 651.25 505.5 651.25 325.75C651.25 146 505.25 0 325.5 0C145.75 0 0 146 0 325.75C0 505.5 145.75 651.25 325.5 651.25ZM325.5 604.75C171.25 604.75 46.5 480 46.5 325.75C46.5 171.5 171.25 46.75 325.5 46.75C479.75 46.75 604.5 171.5 604.5 325.75C604.5 480 479.75 604.75 325.5 604.75Z" fill="white" fill-opacity="0.85"/>
  <path d="M290.25 478.75C299.5 478.75 307 474.5 312.5 466L465.75 225.75C469 220.75 472.25 214.5 472.25 208.5C472.25 196.25 461.25 188 450 188C442.75 188 435.75 192.5 430.75 200.5L289.25 425.25L218.75 337C212.25 328.5 206 326 198.5 326C186.5 326 177 335.75 177 348C177 354 179.5 360 183.5 365.25L267 466C274 475 281 478.75 290.25 478.75Z" fill="white" fill-opacity="0.85"/>
 </g>
</svg>
