<?xml version="1.0" encoding="UTF-8"?>
<!--Generator: Apple Native CoreSVG 341-->
<!DOCTYPE svg
PUBLIC "-//W3C//DTD SVG 1.1//EN"
       "http://www.w3.org/Graphics/SVG/1.1/DTD/svg11.dtd">
<svg version="1.1" xmlns="http://www.w3.org/2000/svg" xmlns:xlink="http://www.w3.org/1999/xlink" viewBox="0 0 390 545.75">
  <g>
    <rect height="545.75" opacity="0" width="390" x="0" y="0" />
    <path
      d="M390 272.75C390 265.5 387.25 259.5 382 254.5L125 7.25C120.25 2.5 114.25 0 107.25 0C93.25 0 82.25 10.5 82.25 24.75C82.25 31.5 85 37.75 89.5 42.25L329 272.75L89.5 503C85 507.5 82.25 513.5 82.25 520.5C82.25 534.75 93.25 545.5 107.25 545.5C114.25 545.5 120.25 542.75 125 538.25L382 291C387.25 285.75 390 279.75 390 272.75Z"
      fill="currentColor"
    />
  </g>
</svg>
