<?xml version="1.0" encoding="UTF-8"?>
<!--Generator: Apple Native CoreSVG 341-->
<!DOCTYPE svg
PUBLIC "-//W3C//DTD SVG 1.1//EN"
       "http://www.w3.org/Graphics/SVG/1.1/DTD/svg11.dtd">
<svg version="1.1" xmlns="http://www.w3.org/2000/svg" xmlns:xlink="http://www.w3.org/1999/xlink" viewBox="0 0 390 545.75">
  <g>
    <rect height="545.75" opacity="0" width="390" x="0" y="0" />
    <path
      d="M0 272.75C0 279.75 2.75 285.75 8 291L265 538.25C269.75 542.75 275.75 545.5 282.75 545.5C296.75 545.5 307.75 534.75 307.75 520.5C307.75 513.5 305 507.5 300.5 503L61 272.75L300.5 42.25C305 37.75 307.75 31.5 307.75 24.75C307.75 10.5 296.75 0 282.75 0C275.75 0 269.75 2.5 265 7.25L8 254.5C2.75 259.5 0 265.5 0 272.75Z"
      fill="currentColor"
    />
  </g>
</svg>
