<?xml version="1.0" encoding="UTF-8"?>
<!--Generator: Apple Native CoreSVG 341-->
<!DOCTYPE svg
PUBLIC "-//W3C//DTD SVG 1.1//EN"
       "http://www.w3.org/Graphics/SVG/1.1/DTD/svg11.dtd">
<svg version="1.1" xmlns="http://www.w3.org/2000/svg" xmlns:xlink="http://www.w3.org/1999/xlink" viewBox="0 0 428.5 615.75">
 <g>
  <rect height="615.75" opacity="0" width="428.5" x="0" y="0"/>
  <path d="M214.25 0C207 0 200.5 3.25 195 8.75L7.25 189.25C2.75 193.75 0 199.5 0 207.5C0 221.5 10.75 232.25 25 232.25C30.75 232.25 37.25 230.5 43.25 224.75L214.25 57.25L385.25 224.75C391.25 230.25 397.75 232.25 403.5 232.25C417.75 232.25 428.5 221.5 428.5 207.5C428.5 199.5 425.5 193.75 421.25 189.25L233.5 8.75C228 3.25 221.5 0 214.25 0ZM214.25 615.25C221.5 615.25 228 612.25 233.5 606.75L421.25 426C425.5 421.5 428.5 415.75 428.5 408C428.5 393.75 417.75 383.25 403.5 383.25C397.75 383.25 391.25 385 385.25 390.5L214.25 558L43.25 390.5C37.25 384.75 30.75 383.25 25 383.25C10.75 383.25 0 393.75 0 408C0 415.75 2.75 421.5 7.25 426L195 606.75C200.5 612.25 207 615.25 214.25 615.25Z" fill="#000000" fill-opacity="1"/>
 </g>
</svg>
