<?xml version="1.0" encoding="UTF-8"?>
<!--Generator: Apple Native CoreSVG 341-->
<!DOCTYPE svg
PUBLIC "-//W3C//DTD SVG 1.1//EN"
       "http://www.w3.org/Graphics/SVG/1.1/DTD/svg11.dtd">
<svg version="1.1" xmlns="http://www.w3.org/2000/svg" xmlns:xlink="http://www.w3.org/1999/xlink" viewBox="0 0 752.75 544.25">
 <g>
  <rect height="544.25" opacity="0" width="752.75" x="0" y="0"/>
  <path d="M140 435.75L219 435.75C238 435.75 250.75 423 250.75 405L250.75 345C250.75 327 238 314.25 219 314.25L140 314.25C121 314.25 108.25 327 108.25 345L108.25 405C108.25 423 121 435.75 140 435.75ZM23 195.25L730.5 195.25L730.5 122.75L23 122.75ZM97.25 544.25L655.25 544.25C720 544.25 752.75 511.5 752.75 447.75L752.75 97.25C752.75 33.5 720 0.75 655.25 0.75L97.25 0.75C32.75 0.75 0 33.25 0 97.25L0 447.75C0 511.75 32.75 544.25 97.25 544.25ZM98.25 499.75C63.25 499.75 44.25 481.25 44.25 445.5L44.25 99.5C44.25 63.5 63.25 45 98.25 45L654.5 45C688.75 45 708.25 63.5 708.25 99.5L708.25 445.5C708.25 481.25 688.75 499.75 654.5 499.75Z" fill="white" fill-opacity="0.85"/>
 </g>
</svg>
