<?xml version="1.0" encoding="UTF-8"?>
<!--Generator: Apple Native CoreSVG 341-->
<!DOCTYPE svg
PUBLIC "-//W3C//DTD SVG 1.1//EN"
       "http://www.w3.org/Graphics/SVG/1.1/DTD/svg11.dtd">
<svg version="1.1" xmlns="http://www.w3.org/2000/svg" xmlns:xlink="http://www.w3.org/1999/xlink" viewBox="0 0 651.25 651.75">
 <g>
  <rect height="651.75" opacity="0" width="651.25" x="0" y="0"/>
  <path d="M325.5 651.25C505.25 651.25 651.25 505.5 651.25 325.75C651.25 146 505.25 0 325.5 0C145.75 0 0 146 0 325.75C0 505.5 145.75 651.25 325.5 651.25ZM325.5 604.75C171.25 604.75 46.5 480 46.5 325.75C46.5 171.5 171.25 46.75 325.5 46.75C479.75 46.75 604.5 171.5 604.5 325.75C604.5 480 479.75 604.75 325.5 604.75Z" fill="white" fill-opacity="0.85"/>
  <path d="M325 383.75C338.5 383.75 346.5 375.75 346.75 361L350.75 189.25C351 174.75 339.75 164 324.75 164C309.5 164 299 174.5 299.25 189L303 361C303.25 375.5 311.25 383.75 325 383.75ZM325 485.5C342.25 485.5 356.75 471.75 356.75 454.75C356.75 437.5 342.5 424 325 424C307.75 424 293.5 437.75 293.5 454.75C293.5 471.5 308 485.5 325 485.5Z" fill="white" fill-opacity="0.85"/>
 </g>
</svg>
