<?xml version="1.0" encoding="UTF-8"?>
<!--Generator: Apple Native CoreSVG 341-->
<!DOCTYPE svg
PUBLIC "-//W3C//DTD SVG 1.1//EN"
       "http://www.w3.org/Graphics/SVG/1.1/DTD/svg11.dtd">
<svg version="1.1" xmlns="http://www.w3.org/2000/svg" xmlns:xlink="http://www.w3.org/1999/xlink" viewBox="0 0 421.75 798.25">
 <g>
  <rect height="798.25" opacity="0" width="421.75" x="0" y="0"/>
  <path d="M192 786.5C203.25 796.25 218.75 797.5 229.75 786.75L329.25 687.25C340.25 676.25 339.75 659.75 329 649.25L275.75 596.25L352 520C362.5 509.75 362.25 493 351.5 482L279.25 409.25C370.25 368 421.75 296 421.75 210.25C421.75 93.75 327.5 0 210.75 0C93.75 0 0 93.5 0 210.25C0 295.75 49.75 371.75 128 404.75L128 711.25C128 720.75 131 731.5 139.5 739ZM210.75 742.75L172.5 704.5L172.5 372.75C96.5 354.5 44 288.5 44 210.25C44 118.5 118.5 44.5 210.75 44.5C303 44.5 377.25 118.25 377.25 210.25C377.25 287.75 324.5 354.5 238.75 376.25L238.75 432.5L307.75 501.5L235.25 573L235.25 618.5L285 667.75ZM210.75 198.5C239.25 198.5 262.25 175.5 262.25 147.25C262.25 118.75 239.25 96 210.75 96C182.25 96 159.75 118.75 159.75 147.25C159.75 175.5 182.5 198.5 210.75 198.5Z" fill="white" fill-opacity="0.85"/>
 </g>
</svg>
