<?xml version="1.0" encoding="UTF-8"?>
<!--Generator: Apple Native CoreSVG 341-->
<!DOCTYPE svg
PUBLIC "-//W3C//DTD SVG 1.1//EN"
       "http://www.w3.org/Graphics/SVG/1.1/DTD/svg11.dtd">
<svg version="1.1" xmlns="http://www.w3.org/2000/svg" xmlns:xlink="http://www.w3.org/1999/xlink" viewBox="0 0 682.25 555.25">
 <g>
  <rect height="555.25" opacity="0" width="682.25" x="0" y="0"/>
  <path d="M100.25 200.75C155.75 200.75 200.75 155.75 200.75 100C200.75 44.75 155.75 0 100.25 0C45 0 0 44.75 0 100C0 155.75 45 200.75 100.25 200.75ZM100.25 157.5C68.5 157.5 43.25 132.25 43.25 100C43.25 68.25 68.75 43.25 100.25 43.25C132.5 43.25 157.5 68.25 157.5 100C157.5 132.25 132.75 157.5 100.25 157.5ZM581.75 200.75C637.25 200.75 682.25 155.75 682.25 100C682.25 44.75 637.25 0 581.75 0C526.5 0 481.5 44.75 481.5 100C481.5 155.75 526.5 200.75 581.75 200.75ZM581.75 157.5C550 157.5 524.75 132.25 524.75 100C524.75 68.25 550.25 43.25 581.75 43.25C614 43.25 639 68.25 639 100C639 132.25 614.25 157.5 581.75 157.5ZM341.25 555C396.75 555 441.75 510.25 441.75 454.5C441.75 399.25 396.75 354.25 341.25 354.25C285.75 354.25 240.75 399.25 240.75 454.5C240.75 510.25 285.75 555 341.25 555ZM341.25 511.75C309.5 511.75 284.25 486.5 284.25 454.5C284.25 422.5 309.5 397.5 341.25 397.5C373.5 397.5 398.5 422.5 398.5 454.5C398.5 486.5 373.5 511.75 341.25 511.75Z" fill="white" fill-opacity="0.85"/>
  <path d="M258.25 126.75C272.25 126.75 283.5 115.25 283.5 101.5C283.5 87.5 272.25 76 258.25 76C244.5 76 233 87.5 233 101.5C233 115.25 244.5 126.75 258.25 126.75ZM341.25 126.75C355 126.75 366.5 115.25 366.5 101.5C366.5 87.5 355 76 341.25 76C327.25 76 316 87.5 316 101.5C316 115.25 327.25 126.75 341.25 126.75ZM424 126.75C438 126.75 449.25 115.25 449.25 101.5C449.25 87.5 438 76 424 76C410.25 76 398.75 87.5 398.75 101.5C398.75 115.25 410.25 126.75 424 126.75ZM499.25 272.25C513 272.25 524.5 260.75 524.5 246.75C524.5 233 513 221.5 499.25 221.5C485.25 221.5 473.75 233 473.75 246.75C473.75 260.75 485.25 272.25 499.25 272.25ZM439 338.5C453 338.5 464.5 327 464.5 313.25C464.5 299.25 453 287.75 439 287.75C425.25 287.75 413.75 299.25 413.75 313.25C413.75 327 425.25 338.5 439 338.5ZM243 338.5C257 338.5 268.5 327 268.5 313.25C268.5 299.25 257 287.75 243 287.75C229.25 287.75 217.75 299.25 217.75 313.25C217.75 327 229.25 338.5 243 338.5ZM183 272.25C196.75 272.25 208.25 260.75 208.25 246.75C208.25 233 196.75 221.5 183 221.5C169 221.5 157.75 233 157.75 246.75C157.75 260.75 169 272.25 183 272.25Z" fill="white" fill-opacity="0.85"/>
 </g>
</svg>
