<?xml version="1.0" encoding="UTF-8"?>
<!--Generator: Apple Native CoreSVG 341-->
<!DOCTYPE svg
PUBLIC "-//W3C//DTD SVG 1.1//EN"
       "http://www.w3.org/Graphics/SVG/1.1/DTD/svg11.dtd">
<svg version="1.1" xmlns="http://www.w3.org/2000/svg" xmlns:xlink="http://www.w3.org/1999/xlink" viewBox="0 0 757.5 587.75">
 <g>
  <rect height="587.75" opacity="0" width="757.5" x="0" y="0"/>
  <path d="M472.5 552.5L515.75 552.5L515.75 35.25L472.5 35.25ZM130.25 587.75L633.5 587.75C711.75 587.75 757.5 540 757.5 457.75L757.5 130.25C757.5 47.75 711.75 0 633.5 0L130.25 0C47.75 0 0 47.75 0 130.25L0 457.75C0 540 47.75 587.75 130.25 587.75ZM130.5 543.5C76.25 543.5 44.25 511.5 44.25 457.25L44.25 130.5C44.25 76.25 76.25 44.25 130.5 44.25L627 44.25C681.25 44.25 713 76.25 713 130.5L713 457.25C713 511.5 681.25 543.5 627 543.5ZM577.75 164.75L651.25 164.75C660 164.75 667.5 157 667.5 148.75C667.5 140 660 132.75 651.25 132.75L577.75 132.75C569 132.75 561.5 140 561.5 148.75C561.5 157 569 164.75 577.75 164.75ZM577.75 249.25L651.25 249.25C660 249.25 667.5 241.75 667.5 233.25C667.5 224.75 660 217.5 651.25 217.5L577.75 217.5C569 217.5 561.5 224.75 561.5 233.25C561.5 241.75 569 249.25 577.75 249.25ZM577.75 333.75L651.25 333.75C660 333.75 667.5 326.5 667.5 318C667.5 309.5 660 302.25 651.25 302.25L577.75 302.25C569 302.25 561.5 309.5 561.5 318C561.5 326.5 569 333.75 577.75 333.75Z" fill="#FF0023" fill-opacity="1"/>
 </g>
</svg>
