<?xml version="1.0" encoding="UTF-8"?>
<!--Generator: Apple Native CoreSVG 341-->
<!DOCTYPE svg
PUBLIC "-//W3C//DTD SVG 1.1//EN"
       "http://www.w3.org/Graphics/SVG/1.1/DTD/svg11.dtd">
<svg version="1.1" xmlns="http://www.w3.org/2000/svg" xmlns:xlink="http://www.w3.org/1999/xlink" viewBox="0 0 683.75 798.75">
 <g>
  <rect height="798.75" opacity="0" width="683.75" x="0" y="0"/>
  <path d="M139.75 520C133.75 520 129.5 523.75 128.75 530C115.75 630 112.5 631 11 648.25C4 649.25 0 653 0 659.25C0 665.5 4 669 9.75 670C112 689.75 115.75 688.75 128.75 788C129.5 794.75 133.75 798.75 139.75 798.75C145.5 798.75 150 794.75 150.75 788.25C164.25 687.5 167 686 269.5 670C275.25 669.25 279.25 665.5 279.25 659.25C279.25 653.25 275.25 649.25 269.5 648.25C167 628.5 164.5 629.5 150.75 529.5C150 523.75 145.5 520 139.75 520Z" fill="#FF0023"/>
  <path d="M392.25 105.5C383.25 105.5 376.75 111.75 375.75 120.75C348.25 330.75 322.25 353.75 116.5 380.25C107.25 381.25 100.75 388 100.75 396.75C100.75 405.75 107.25 412.5 116.5 413.5C323 434.75 350.5 462.75 375.75 672.75C376.75 681.75 383.25 688.25 392.25 688.25C401 688.25 407.75 681.75 409 672.75C434.5 462.75 461.75 434.75 668 413.5C677.5 412.5 683.75 405.75 683.75 396.75C683.75 388 677.5 381.25 668 380.25C461.75 358.75 434.5 330.75 409 120.75C407.75 111.75 401 105.5 392.25 105.5Z" fill="#FF0023"/>
 </g>
</svg>
